<svg width="40" height="25" viewBox="0 0 40 25" fill="none" xmlns="http://www.w3.org/2000/svg">
<path d="M20.0926 20.9167C22.5012 18.6983 24.0224 15.5291 24.0224 12.043C24.0224 8.49351 22.5012 5.32432 20.0926 3.16928C17.9376 1.26777 15.1487 0.0634766 12.0429 0.0634766C5.38761 0.0634766 0 5.45109 0 12.043C0 18.6983 5.38761 24.0859 12.0429 24.0859C15.1487 24.0225 17.9376 22.8182 20.0926 20.9167Z" fill="#3362AB"/>
<path d="M20.0921 20.9166C22.5007 18.6982 24.0219 15.529 24.0219 12.0429C24.0219 8.49342 22.5007 5.32423 20.0921 3.16919" fill="#3362AB"/>
<path d="M20.0921 20.9166C22.5007 18.6982 24.0219 15.529 24.0219 12.0429C24.0219 8.49342 22.5007 5.32424 20.0921 3.16919" stroke="#3362AB" stroke-width="0.3097"/>
<path d="M28.1429 0C25.0371 0 22.1848 1.20429 20.0931 3.1058C19.6494 3.4861 19.2691 3.92979 18.8888 4.37347H21.2974C21.6143 4.75377 21.9312 5.19746 22.1848 5.64115H17.9381C17.6845 6.02145 17.431 6.46513 17.2409 6.90882H22.882C23.0721 7.35251 23.2623 7.73281 23.3891 8.17649H16.7338C16.607 8.62018 16.4803 9.00048 16.3535 9.44417H23.706C23.8961 10.2682 23.9595 11.0921 23.9595 11.9795C23.9595 13.3106 23.7694 14.5782 23.3257 15.7825H16.6704C16.7972 16.2262 16.9873 16.6699 17.1775 17.0502H22.8186C22.6285 17.4939 22.3749 17.9376 22.1214 18.3179H17.8747C18.1282 18.7616 18.4451 19.2053 18.7621 19.5856H21.1707C20.7903 20.0292 20.41 20.4729 19.9663 20.8532C22.1214 22.7547 24.9103 23.959 28.0161 23.959C34.6714 23.959 39.9956 18.5714 39.9956 11.9161C40.1857 5.38762 34.7981 0 28.1429 0Z" fill="#C9191B"/>
<path d="M10.5219 14.9586H9.00071L9.88808 10.2682L7.85981 14.9586H6.52875L6.27522 10.3316L5.38784 14.9586H4.05679L5.19769 8.87378H7.5429L7.66965 12.6768L9.31763 8.87378H11.7262L10.5219 14.9586Z" fill="white"/>
<path d="M27.2552 14.9585C26.8749 15.0852 26.4946 15.1486 26.1777 15.1486C25.4171 15.1486 24.9734 14.7683 24.9734 14.0711C24.9734 13.9443 24.9734 13.7542 25.0368 13.6274L25.1002 13.1203L25.1636 12.74L25.8608 8.93701H27.3186L27.1285 10.0779H27.8891L27.6989 11.2822H26.9383L26.558 13.3739C26.558 13.4373 26.558 13.564 26.558 13.564C26.558 13.8176 26.7482 13.9443 27.0651 13.9443C27.2552 13.9443 27.382 13.9443 27.4454 13.8809L27.2552 14.9585Z" fill="white"/>
<path d="M31.5656 10.078C31.4388 10.0146 31.4388 10.0146 31.3754 10.0146C31.312 10.0146 31.2486 10.0146 31.2486 10.0146C31.1853 10.0146 31.1219 10.0146 31.0585 10.0146C30.5514 10.0146 30.2345 10.2048 29.7274 10.8386L29.8542 10.078H28.6499L27.7625 15.022H29.2837C29.7908 11.9795 30.0443 11.4725 30.7416 11.4725C30.8049 11.4725 30.8683 11.4725 30.9317 11.4725L31.1219 11.5359L31.5656 10.078Z" fill="white"/>
<path d="M21.2964 11.5992C21.2964 12.233 21.6767 12.6767 22.4374 12.9936C23.0712 13.2471 23.1346 13.3105 23.1346 13.564C23.1346 13.881 22.881 14.0077 22.2472 14.0077C21.8035 14.0077 21.3598 13.9443 20.9161 13.8176L20.726 14.9585H20.7894L21.0429 15.0219C21.1063 15.0219 21.2964 15.0853 21.4232 15.0853C21.8035 15.0853 22.057 15.1486 22.2472 15.1486C23.8318 15.1486 24.5924 14.6416 24.5924 13.5007C24.5924 12.8034 24.2755 12.4231 23.5149 12.1062C22.881 11.8527 22.8176 11.7893 22.8176 11.5358C22.8176 11.2822 23.0712 11.1555 23.5782 11.1555C23.8952 11.1555 24.2755 11.1555 24.6558 11.2188L24.8459 10.0779C24.4656 10.0146 23.8952 9.95117 23.5149 9.95117C21.8669 9.95117 21.2964 10.7118 21.2964 11.5992Z" fill="white"/>
<path d="M14.3252 12.8034C14.1351 12.8034 14.0717 12.8034 14.0083 12.8034C13.1843 12.8034 12.7406 13.057 12.7406 13.564C12.7406 13.881 12.9308 14.0711 13.2477 14.0711C13.8182 14.0077 14.2618 13.5007 14.3252 12.8034ZM15.4027 14.9585H14.1351L14.1985 14.4514C13.8182 14.8317 13.3111 15.0219 12.6139 15.0219C11.7899 15.0219 11.2828 14.4514 11.2828 13.6908C11.2828 12.4865 12.2336 11.7893 13.8815 11.7893C14.0717 11.7893 14.2618 11.7893 14.5154 11.8527C14.5788 11.6625 14.5787 11.5991 14.5787 11.5358C14.5787 11.2188 14.3252 11.0921 13.628 11.0921C13.1843 11.0921 12.7406 11.1555 12.4237 11.2188L12.2336 11.2822L12.1068 11.3456L12.2969 10.2047C13.0576 10.0146 13.5012 9.95117 14.0717 9.95117C15.3394 9.95117 16.0366 10.4582 16.0366 11.409C16.0366 11.6625 16.0366 11.8527 15.9098 12.3598L15.5929 14.1345L15.5295 14.4514L15.4661 14.7049V14.8951L15.4027 14.9585Z" fill="white"/>
<path d="M19.5219 11.9162C19.5219 11.7895 19.5219 11.7261 19.5219 11.6627C19.5219 11.2824 19.2684 11.0288 18.8247 11.0288C18.3176 11.0288 18.0007 11.3458 17.874 11.9162H19.5219ZM20.2825 14.8953C19.7755 15.022 19.2684 15.0854 18.7613 15.0854C17.1134 15.0854 16.226 14.3248 16.226 12.867C16.226 11.1556 17.3035 9.88794 18.8247 9.88794C20.029 9.88794 20.853 10.5852 20.853 11.6627C20.853 12.043 20.7896 12.3599 20.6628 12.867H17.6838C17.6838 12.9304 17.6838 12.9937 17.6838 12.9937C17.6838 13.5642 18.1275 13.8811 19.0149 13.8811C19.5219 13.8811 20.029 13.7543 20.5995 13.5642L20.2825 14.8953Z" fill="white"/>
<path d="M34.6711 12.1062C34.6711 11.5991 34.481 11.0921 33.8471 11.0921C33.0865 11.0921 32.6428 11.9795 32.6428 12.8034C32.6428 13.5007 32.9598 13.9443 33.5302 13.9443C33.8471 13.9443 34.5444 13.5007 34.6711 12.7401C34.6711 12.5499 34.6711 12.2964 34.6711 12.1062ZM36.2557 12.7401C36.0022 14.388 34.8613 15.1486 33.3401 15.1486C31.6287 15.1486 30.9949 14.1345 30.9949 12.8668C30.9949 11.0921 32.1358 9.95117 33.9105 9.95117C35.4951 9.95117 36.2557 10.9019 36.2557 12.1696C36.3191 12.4231 36.3191 12.4231 36.2557 12.7401Z" fill="white"/>
</svg>
