<svg width="40" height="13" viewBox="0 0 40 13" fill="none" xmlns="http://www.w3.org/2000/svg">
<path d="M37.3101 0.175293H34.7955C34.0353 0.175293 33.4505 0.40921 33.0996 1.16944L28.3044 12.1051H31.6961C31.6961 12.1051 32.2809 10.6431 32.3979 10.2922C32.7488 10.2922 36.0821 10.2922 36.5499 10.2922C36.6669 10.7015 36.9593 12.0466 36.9593 12.0466H40.0002L37.3101 0.175293ZM33.3336 7.83607C33.626 7.13432 34.6201 4.50275 34.6201 4.50275C34.6201 4.56123 34.9125 3.801 35.0295 3.39165L35.2634 4.44427C35.2634 4.44427 35.9066 7.30976 36.0236 7.89455H33.3336V7.83607Z" fill="#3362AB"/>
<path d="M28.5378 8.18709C28.5378 10.6432 26.3156 12.2806 22.8653 12.2806C21.4033 12.2806 19.9998 11.9882 19.2396 11.6374L19.7074 8.94732L20.1168 9.12275C21.1694 9.59059 21.8712 9.76602 23.1577 9.76602C24.0934 9.76602 25.0875 9.41515 25.0875 8.59644C25.0875 8.07013 24.6782 7.71925 23.3916 7.13446C22.1636 6.54967 20.5261 5.614 20.5261 3.91811C20.5261 1.57894 22.8068 0 26.0232 0C27.2512 0 28.3039 0.233917 28.9471 0.526313L28.4793 3.0994L28.2454 2.86548C27.6606 2.63156 26.9004 2.39765 25.7893 2.39765C24.5612 2.45613 23.9764 2.98244 23.9764 3.45027C23.9764 3.97659 24.6782 4.38594 25.7893 4.91225C27.6606 5.78944 28.5378 6.78359 28.5378 8.18709Z" fill="#3362AB"/>
<path d="M0 0.292511L0.0584792 0.0585938H5.08769C5.78944 0.0585938 6.31575 0.292511 6.49119 1.05274L7.6023 6.31587C6.49119 3.50887 3.91811 1.22818 0 0.292511Z" fill="#F9B50B"/>
<path d="M14.6788 0.175423L9.59112 12.0467H6.14085L3.21689 2.10524C5.32214 3.45026 7.07652 5.55551 7.71979 7.01749L8.07066 8.24555L11.2285 0.116943H14.6788V0.175423Z" fill="#3362AB"/>
<path d="M16.023 0.116943H19.2394L17.1926 12.0467H13.9763L16.023 0.116943Z" fill="#3362AB"/>
</svg>
